<svg id="logo" style="position: absolute; width: 0; height: 0; overflow: hidden;" xmlns="http://www.w3.org/2000/svg" xmlns:xlink="http://www.w3.org/1999/xlink" viewBox="0 0 640 640" width="640"  height="640" > <defs> <filter x="-3.8%" y="-2.8%" width="107.7%" height="111.1%" filterUnits="objectBoundingBox" id="a"> <feOffset dy="10" in="SourceAlpha" result="shadowOffsetOuter1"></feOffset> <feGaussianBlur stdDeviation="5" in="shadowOffsetOuter1" result="shadowBlurOuter1"></feGaussianBlur> <feColorMatrix values="0 0 0 0 0 0 0 0 0 0 0 0 0 0 0 0 0 0 0.16 0" in="shadowBlurOuter1"></feColorMatrix> </filter> <path d="M499.178 195.54c5.828 16.006 14.447 39.657-.562-1.566-5.336-14.64-3.618-9.916-.393-1.053-14.807-40.373-36.1-84.274-58.53-120.637-24.04-38.975-45.588-61.116-60.983-69.195 0 0-7.932-5.624-19.532-.77l-.396.141c-14.996 5.47-33.715 25.286-55.633 58.902-14.538 22.292-28.937 48.334-41.764 75.39-14.042-29.557-30.051-58.123-45.687-81.29-15.87-23.516-39.493-54.78-61.304-54.78-1.663 0-3.31.174-4.895.513v.003c-9.717 1.784-20.027 8.995-32.359 22.649-10.125 11.209-21.155 26.278-32.78 44.784-23.513 37.429-45.83 83.134-61.23 125.404C6.765 238.986-.888 275.643.382 302.987c.881 18.986 6.664 43.19 28.725 53.275l3.093 1.299 2.867.945a42.678 42.678 0 0012.032 1.733h.002c17.686 0 35.05-10.567 51.603-31.403 16.203-20.394 31.744-50.845 46.196-90.516a622.213 622.213 0 009.405-27.965 627.225 627.225 0 009.395 27.918c26.077 71.57 55.065 112.058 86.161 120.338l.48.121c.602.153 1.336.339 2.16.501l.527.109c2.362.452 4.69.712 7.115.8l.285.01a30.71 30.71 0 003.203-.063c.471-.02.904-.048 1.381-.08l1.023-.105a35.83 35.83 0 001.159-.158c.5-.06 1.22-.15 2.073-.311.71-.13 1.424-.28 2.24-.473l.45-.112c.19-.044.379-.092.57-.143 31.237-8.052 60.344-48.563 86.512-120.41a610.7 610.7 0 008.928-26.38 605.593 605.593 0 008.928 26.35c14.432 39.653 29.962 70.099 46.156 90.494 16.547 20.837 33.906 31.404 51.592 31.406h.007c4.729 0 9.407-.785 13.92-2.335 11.15-2.948 20.065-10.173 25.812-20.94 14.201-26.586 9.078-74.145-15.203-141.352" id="b"></path> <path d="M499.178 195.54c5.828 16.006 14.447 39.657-.562-1.566-5.336-14.64-3.618-9.916-.393-1.053-14.807-40.373-36.1-84.274-58.53-120.637-24.04-38.975-45.588-61.116-60.983-69.195 0 0-7.932-5.624-19.532-.77l-.396.141c-14.996 5.47-33.715 25.286-55.633 58.902-14.538 22.292-28.937 48.334-41.764 75.39-14.042-29.557-30.051-58.123-45.687-81.29-15.87-23.516-39.493-54.78-61.304-54.78-1.663 0-3.31.174-4.895.513v.003c-9.717 1.784-20.027 8.995-32.359 22.649-10.125 11.209-21.155 26.278-32.78 44.784-23.513 37.429-45.83 83.134-61.23 125.404C6.765 238.986-.888 275.643.382 302.987c.881 18.986 6.664 43.19 28.725 53.275l3.093 1.299 2.867.945a42.678 42.678 0 0012.032 1.733h.002c17.686 0 35.05-10.567 51.603-31.403 16.203-20.394 31.744-50.845 46.196-90.516a622.213 622.213 0 009.405-27.965 627.225 627.225 0 009.395 27.918c26.077 71.57 55.065 112.058 86.161 120.338l.48.121c.602.153 1.336.339 2.16.501l.527.109c2.362.452 4.69.712 7.115.8l.285.01a30.71 30.71 0 003.203-.063c.471-.02.904-.048 1.381-.08l1.023-.105a35.83 35.83 0 001.159-.158c.5-.06 1.22-.15 2.073-.311.71-.13 1.424-.28 2.24-.473l.45-.112c.19-.044.379-.092.57-.143 31.237-8.052 60.344-48.563 86.512-120.41a610.7 610.7 0 008.928-26.38 605.593 605.593 0 008.928 26.35c14.432 39.653 29.962 70.099 46.156 90.494 16.547 20.837 33.906 31.404 51.592 31.406h.007c4.729 0 9.407-.785 13.92-2.335 11.15-2.948 20.065-10.173 25.812-20.94 14.201-26.586 9.078-74.145-15.203-141.352" id="b"></path><path d="M499.178 195.54c5.828 16.006 14.447 39.657-.562-1.566-5.336-14.64-3.618-9.916-.393-1.053-14.807-40.373-36.1-84.274-58.53-120.637-24.04-38.975-45.588-61.116-60.983-69.195 0 0-7.932-5.624-19.532-.77l-.396.141c-14.996 5.47-33.715 25.286-55.633 58.902-14.538 22.292-28.937 48.334-41.764 75.39-14.042-29.557-30.051-58.123-45.687-81.29-15.87-23.516-39.493-54.78-61.304-54.78-1.663 0-3.31.174-4.895.513v.003c-9.717 1.784-20.027 8.995-32.359 22.649-10.125 11.209-21.155 26.278-32.78 44.784-23.513 37.429-45.83 83.134-61.23 125.404C6.765 238.986-.888 275.643.382 302.987c.881 18.986 6.664 43.19 28.725 53.275l3.093 1.299 2.867.945a42.678 42.678 0 0012.032 1.733h.002c17.686 0 35.05-10.567 51.603-31.403 16.203-20.394 31.744-50.845 46.196-90.516a622.213 622.213 0 009.405-27.965 627.225 627.225 0 009.395 27.918c26.077 71.57 55.065 112.058 86.161 120.338l.48.121c.602.153 1.336.339 2.16.501l.527.109c2.362.452 4.69.712 7.115.8l.285.01a30.71 30.71 0 003.203-.063c.471-.02.904-.048 1.381-.08l1.023-.105a35.83 35.83 0 001.159-.158c.5-.06 1.22-.15 2.073-.311.71-.13 1.424-.28 2.24-.473l.45-.112c.19-.044.379-.092.57-.143 31.237-8.052 60.344-48.563 86.512-120.41a610.7 610.7 0 008.928-26.38 605.593 605.593 0 008.928 26.35c14.432 39.653 29.962 70.099 46.156 90.494 16.547 20.837 33.906 31.404 51.592 31.406h.007c4.729 0 9.407-.785 13.92-2.335 11.15-2.948 20.065-10.173 25.812-20.94 14.201-26.586 9.078-74.145-15.203-141.352" id="b"></path></defs> <g fill="none" fill-rule="evenodd"> <g transform="translate(60 130)" fill="none"> <use fill="#000" filter="url(#a)" xlink:href="#b"></use> <use fill="#FFFFFF" xlink:href="#b"></use> </g> <path d="M212.833 145.065c-26.297 3.973-84.645 97.719-116.018 183.823-33.34 91.572-25.359 135.799.835 145.413.018.02.037.02.037.02s.008 0 .036.02c26.263 9.458 60.834-19.288 94.201-110.87 9.022-24.79 16.733-51.485 22.741-77.44-3.163-70.55-2.157-140.89-1.832-140.966" fill="#F41CB2"></path> <path d="M212.834 145.065c21.775-4.676 74.573 74.706 108.915 156.41.626 19.203-8.524 173.233-7.884 173.426-23.151-6.162-50.176-39.282-76.482-111.484-9.01-24.771-16.753-51.453-22.717-77.386l-.481-2.096c-15.758-69.124-19.215-132.285-2.41-138.574 0 0 .006 0 .026-.01h.02a8.75 8.75 0 011.013-.285h.002z" fill="#FF912E"></path> <path d="M330.794 474.52c-.514.166-1.024.322-1.532.47-.23.066-.451.104-.667.17-.5.116-1.018.23-1.559.326-.535.104-1.018.152-1.502.213-.399.072-.756.108-1.138.158-.418.028-.791.05-1.213.068a23.89 23.89 0 01-1.623.056c-.193 0-.373-.017-.555-.017a32.514 32.514 0 01-4.969-.556c-.075-.019-.172-.036-.261-.057-.608-.115-1.26-.286-1.91-.45-.64-.193-1.329-.393-1.996-.628l-.02-.01h-.028c-26.212-9.615-34.2-53.839-.833-145.42 3.29-9.078 6.92-18.233 10.762-27.368l.941-2.23c31.216-73.547 77.02-144.602 101.307-153.456 1.005 19.974.7 70.72 4.319 142.353-5.917 25.257-13.455 51.19-22.249 75.292-26.428 72.555-53.585 105.63-76.806 111.557.254-.074.509-.15.764-.228z" fill="#F25511"></path> <path d="M427.832 286.062c-15.87-68.598-19.71-131.89-3.834-140.273 1.673-.59 3.198-.905 4.643-.917 1.224.096 2.475.382 3.795.853 27.474 9.686 82.893 99.962 113.207 183.107 33.34 91.574 25.38 135.815-.834 145.409 0 0-.02 0-.047.024h-.017c-26.26 9.478-60.833-19.269-94.166-110.849-8.81-24.103-16.346-50.017-22.262-75.274z" fill="#F41CB2"></path> <path d="M432.436 162.748c27.474 9.686 84.786 99.016 115.099 182.16 13.7 37.631 20.142 58.855 19.881 86.95 1.666-23.794-4.528-55.658-21.773-103.026-30.312-83.145-85.733-173.421-113.207-183.107-1.32-.471-2.571-.757-3.795-.854-1.445.013-2.97.327-4.643.918-24.532 8.945-71.019 82.296-102.25 156.633-34.34-81.706-87.138-162.033-108.915-157.356-26.296 3.972-84.646 97.716-116.018 183.822-17.243 47.358-23.433 80.158-21.766 103.95-.262-32.858 6.176-50.252 19.873-87.873 31.374-86.105 91.615-178.904 117.91-182.876 21.778-4.677 65.534 60.732 108.917 142.222 39.93-75.569 77.717-132.554 102.249-141.5 1.582-.56 3.032-.87 4.41-.91" fill="#821414"></path> </g></svg>